<?xml version="1.0" encoding="UTF-8" standalone="no"?>
<!-- Created with Inkscape (http://www.inkscape.org/) -->

<svg
   width="16.829506mm"
   height="19.411377mm"
   viewBox="0 0 16.829506 19.411377"
   version="1.1"
   id="svg5"
   inkscape:version="1.2.2 (b0a8486541, 2022-12-01)"
   sodipodi:docname="riparuk.svg"
   xml:space="preserve"
   inkscape:export-filename="riparuk.png"
   inkscape:export-xdpi="96"
   inkscape:export-ydpi="96"
   xmlns:inkscape="http://www.inkscape.org/namespaces/inkscape"
   xmlns:sodipodi="http://sodipodi.sourceforge.net/DTD/sodipodi-0.dtd"
   xmlns="http://www.w3.org/2000/svg"
   xmlns:svg="http://www.w3.org/2000/svg"><sodipodi:namedview
     id="namedview7"
     pagecolor="#ffffff"
     bordercolor="#000000"
     borderopacity="0.25"
     inkscape:showpageshadow="2"
     inkscape:pageopacity="0.0"
     inkscape:pagecheckerboard="0"
     inkscape:deskcolor="#d1d1d1"
     inkscape:document-units="mm"
     showgrid="false"
     inkscape:zoom="0.45878928"
     inkscape:cx="1022.2558"
     inkscape:cy="1386.2573"
     inkscape:window-width="1366"
     inkscape:window-height="695"
     inkscape:window-x="0"
     inkscape:window-y="0"
     inkscape:window-maximized="1"
     inkscape:current-layer="g13557" /><defs
     id="defs2"><rect
       x="62.997654"
       y="296.04666"
       width="217.67979"
       height="86.107933"
       id="rect16969" /></defs><g
     inkscape:label="Layer 1"
     inkscape:groupmode="layer"
     id="layer1"
     transform="translate(-88.883349,-239.1741)"><g
       aria-label="riparuk"
       transform="matrix(0.42198605,0,0,0.42198605,37.347453,19.174932)"
       id="text16967"
       style="font-style:italic;font-size:66.6667px;font-family:Lato;-inkscape-font-specification:'Lato weight=250 Italic';white-space:pre;shape-inside:url(#rect16969);fill:#112623;stroke-width:17.2535;stroke-linejoin:round"
       inkscape:export-filename="./riparuk-logo.svg"
       inkscape:export-xdpi="96"
       inkscape:export-ydpi="96"><path
         d="m 74.831387,329.78023 q 1.6,-3.06667 3.800002,-4.80001 2.200001,-1.76666 5.200002,-1.76666 2.366668,0 3.800002,1.03333 l -0.533333,6.16667 q -0.166667,0.6 -0.500001,0.86667 -0.3,0.23333 -0.833333,0.23333 -0.500001,0 -1.500001,-0.16667 -0.966667,-0.16666 -1.900001,-0.16666 -1.366668,0 -2.433335,0.4 -1.066667,0.4 -1.933334,1.16666 -0.833334,0.73334 -1.500001,1.80001 -0.633334,1.06666 -1.200001,2.43333 v 21.06668 h -8.233337 v -34.20002 h 4.833336 q 1.266667,0 1.766667,0.46667 0.500001,0.43333 0.666667,1.6 z"
         style="font-style:normal;font-weight:bold;-inkscape-font-specification:'Lato Bold'"
         id="path18821" /><path
         d="m 100.46468,323.84689 v 34.20002 h -8.266671 v -34.20002 z m 1.13333,-9.96667 c 0,0.71111 -5.967553,1.37778 -6.256439,2 -0.288887,0.62222 5.145329,1.16666 4.656442,1.63333 -0.466667,0.46667 -1.022222,0.84445 -1.666667,1.13334 -0.644445,0.26667 -1.333334,0.4 -2.066668,0.4 -0.711111,0 -1.388889,-0.13333 -2.033334,-0.4 -0.622223,-0.28889 -1.166668,-0.66667 -1.633335,-1.13334 -0.466667,-0.46667 -0.844444,-1.01111 -1.133333,-1.63333 -0.266667,-0.62222 -0.400001,-1.28889 -0.400001,-2 0,-0.73333 0.133334,-1.42222 0.400001,-2.06667 0.288889,-0.64445 0.666666,-1.2 1.133333,-1.66667 0.466667,-0.46667 1.011112,-0.83333 1.633335,-1.1 0.644445,-0.28889 1.322223,-0.43333 2.033334,-0.43333 0.733334,0 1.422223,0.14444 2.066668,0.43333 0.644445,0.26667 1.2,0.63333 1.666667,1.1 0.488887,0.46667 0.877777,1.02222 1.166667,1.66667 0.28889,0.64445 0.43333,1.33334 0.43333,2.06667 z"
         style="font-style:normal;font-weight:bold;-inkscape-font-specification:'Lato Bold'"
         id="path18823"
         sodipodi:nodetypes="cccccssccscscscscsccss" /><path
         d="m 117.098,349.18024 c 0.93333,1.13333 1.94445,1.93333 3.03334,2.4 1.11111,0.46667 2.31111,0.7 3.6,0.7 1.24445,0 2.36667,-0.23333 3.36667,-0.7 1,-0.46667 1.84444,-1.17778 2.53333,-2.13334 0.71111,-0.95555 1.25556,-2.15555 1.63334,-3.6 0.37777,-1.46667 0.56666,-3.18889 0.56666,-5.16667 0,-2 -0.16667,-3.68889 -0.5,-5.06667 -0.31111,-1.4 -0.76666,-2.53333 -1.36666,-3.4 -0.6,-0.86667 -1.33333,-1.5 -2.2,-1.9 -0.84445,-0.4 -1.81112,-0.6 -2.90001,-0.6 -1.71111,0 -3.16666,0.36667 -4.36667,1.1 -1.2,0.71111 -2.33333,1.72223 -3.4,3.03334 z m -0.43333,-20.66668 c 1.4,-1.57778 2.98889,-2.85556 4.76667,-3.83334 1.77778,-0.97777 3.86667,-1.46666 6.26667,-1.46666 1.86667,0 3.56667,0.38889 5.1,1.16666 1.55556,0.77778 2.88889,1.91112 4,3.40001 1.13333,1.46667 2,3.28889 2.6,5.46666 0.62223,2.15556 0.93334,4.63334 0.93334,7.43334 0,2.55556 -0.34445,4.92223 -1.03334,7.10001 -0.68889,2.17777 -1.67777,4.06666 -2.96666,5.66667 -1.26667,1.6 -2.81111,2.85555 -4.63334,3.76666 -1.8,0.88889 -3.82222,1.33334 -6.06667,1.33334 -1.91111,0 -3.54445,-0.28889 -4.9,-0.86667 -1.35556,-0.6 -2.56667,-1.42222 -3.63334,-2.46667 l -16.64832,14.00001 h 8.41499 v -45.36669 h 5.03333 c 1.06667,0 1.76667,0.5 2.1,1.5 z"
         style="fill:#6fdb76"
         id="path18825"
         sodipodi:nodetypes="ccssccscscsccccsscccssccscccccscc" /><path
         d="m 164.79808,343.4469 q -3.56667,0.16667 -6,0.63333 -2.43334,0.43334 -3.90001,1.13334 -1.46666,0.7 -2.1,1.63333 -0.63333,0.93334 -0.63333,2.03334 0,2.16666 1.26667,3.1 1.3,0.93333 3.36666,0.93333 2.53334,0 4.36667,-0.9 1.86667,-0.93333 3.63334,-2.8 z M 145.9314,328.61356 q 5.90001,-5.4 14.20001,-5.4 3,0 5.36667,1 2.36667,0.96666 4,2.73333 1.63334,1.73334 2.46667,4.16667 0.86667,2.43334 0.86667,5.33334 v 21.60001 h -3.73334 q -1.16667,0 -1.8,-0.33334 -0.63333,-0.36666 -1,-1.43333 l -0.73333,-2.46667 q -1.3,1.16667 -2.53334,2.06667 -1.23333,0.86667 -2.56667,1.46667 -1.33333,0.6 -2.86666,0.9 -1.50001,0.33333 -3.33334,0.33333 -2.16667,0 -4,-0.56667 -1.83334,-0.6 -3.16667,-1.76666 -1.33333,-1.16667 -2.06667,-2.9 -0.73333,-1.73334 -0.73333,-4.03334 0,-1.3 0.43333,-2.56667 0.43334,-1.3 1.4,-2.46667 1,-1.16666 2.56667,-2.2 1.56667,-1.03333 3.83334,-1.8 2.3,-0.76667 5.33333,-1.23333 3.03334,-0.5 6.93334,-0.6 v -2 q 0,-3.43334 -1.46667,-5.06667 -1.46667,-1.66667 -4.23333,-1.66667 -2.00001,0 -3.33334,0.46667 -1.3,0.46666 -2.3,1.06666 -1,0.56667 -1.83333,1.03334 -0.80001,0.46666 -1.80001,0.46666 -0.86666,0 -1.46666,-0.43333 -0.6,-0.46667 -0.96667,-1.06667 z"
         style="fill:#6fdb76"
         id="path18827" /><path
         d="m 188.33141,329.78023 q 1.6,-3.06667 3.8,-4.80001 2.2,-1.76666 5.2,-1.76666 2.36667,0 3.80001,1.03333 l -0.53334,6.16667 q -0.16666,0.6 -0.5,0.86667 -0.3,0.23333 -0.83333,0.23333 -0.5,0 -1.5,-0.16667 -0.96667,-0.16666 -1.9,-0.16666 -1.36667,0 -2.43334,0.4 -1.06667,0.4 -1.93333,1.16666 -0.83334,0.73334 -1.5,1.80001 -0.63334,1.06666 -1.2,2.43333 v 21.06668 h -8.23334 v -34.20002 h 4.83333 q 1.26667,0 1.76667,0.46667 0.5,0.43333 0.66667,1.6 z"
         style="fill:#6fdb76"
         id="path18829" /><path
         d="m 234.89805,323.84689 v 34.20002 h -5.03333 q -1.63334,0 -2.06667,-1.5 l -0.56667,-2.73334 q -2.1,2.13334 -4.63334,3.46667 -2.53333,1.3 -5.96666,1.3 -2.80001,0 -4.96667,-0.93333 -2.13334,-0.96667 -3.60001,-2.7 -1.46666,-1.73334 -2.23333,-4.10001 -0.73333,-2.4 -0.73333,-5.26667 v -21.73334 h 8.23333 v 21.73334 q 0,3.13334 1.43334,4.86667 1.46666,1.7 4.36667,1.7 2.13333,0 4,-0.93333 1.86667,-0.96667 3.53333,-2.63333 v -24.73335 z"
         style="fill:#6fdb76"
         id="path18831" /><path
         d="m 251.26467,308.51355 v 28.36668 h 1.53333 q 0.83334,0 1.3,-0.2 0.5,-0.23333 1,-0.9 l 8.50001,-10.50001 q 0.53333,-0.7 1.16666,-1.06666 0.66667,-0.36667 1.70001,-0.36667 h 7.53333 l -10.63334,12.70001 q -1.13333,1.5 -2.46666,2.3 0.7,0.5 1.23333,1.16667 0.56667,0.66666 1.06667,1.43333 l 11.4,16.60001 h -7.43333 q -0.96667,0 -1.66667,-0.3 -0.7,-0.33334 -1.16667,-1.16667 L 255.598,343.61357 q -0.46666,-0.76667 -0.96666,-1 -0.5,-0.23334 -1.50001,-0.23334 h -1.86666 v 15.66668 h -8.23334 v -49.53336 z"
         style="fill:#6fdb76"
         id="path18833" /><g
         id="g13557"
         inkscape:export-filename="./favicon.ico"
         inkscape:export-xdpi="3.952282"
         inkscape:export-ydpi="3.952282"><rect
           style="opacity:1;fill:#242526;fill-opacity:1;fill-rule:evenodd;stroke:none;stroke-width:2.36975;stroke-linecap:round;stroke-linejoin:round;stroke-opacity:1"
           id="rect12796"
           width="243.67319"
           height="243.67319"
           x="867.76025"
           y="649.26355"
           ry="44.701557"
           rx="0"
           inkscape:export-filename="./favicon.ico"
           inkscape:export-xdpi="7.9045639"
           inkscape:export-ydpi="7.9045639" /><path
           d="m 976.88402,778.83801 c 2.68724,3.26311 5.59843,5.56649 8.73358,6.91015 3.19912,1.34364 6.65418,2.01545 10.36533,2.01545 3.58316,0 6.81427,-0.67181 9.69347,-2.01545 2.8792,-1.34366 5.3104,-3.39111 7.2939,-6.14238 2.0474,-2.75125 3.6151,-6.20632 4.7029,-10.36523 1.0875,-4.22287 1.6314,-9.18154 1.6314,-14.87602 0,-5.75846 -0.4797,-10.62117 -1.4396,-14.58811 -0.8958,-4.03092 -2.2073,-7.29403 -3.9347,-9.78938 -1.7276,-2.49534 -3.8393,-4.31884 -6.3344,-5.47053 -2.4315,-1.1517 -5.2148,-1.72754 -8.34972,-1.72754 -4.92685,0 -9.11769,1.05572 -12.57275,3.16715 -3.45506,2.04745 -6.71808,4.95869 -9.78941,8.73368 z m -1.24752,-59.50412 c 4.03092,-4.54279 8.60543,-8.22182 13.72409,-11.03706 5.11875,-2.81522 11.13321,-4.22285 18.04331,-4.22285 5.3746,0 10.2693,1.1197 14.684,3.35908 4.479,2.2394 8.3179,5.50255 11.5169,9.78941 3.2631,4.22288 5.7586,9.46946 7.4861,15.73976 1.7914,6.20636 2.6871,13.34045 2.6871,21.4023 0,7.35804 -0.9916,14.17223 -2.9751,20.44255 -1.9835,6.27031 -4.8307,11.70885 -8.5418,16.31564 -3.6468,4.60677 -8.0938,8.22179 -13.3403,10.84508 -5.1826,2.55932 -11.005,3.839 -17.4674,3.839 -5.50248,0 -10.20518,-0.83178 -14.10823,-2.49535 -3.90277,-1.72753 -7.38982,-4.0949 -10.46115,-7.10211 l -47.93423,40.30924 h 24.22867 v -130.6211 h 14.49207 c 3.07127,0 5.0867,1.43961 6.04636,4.31884 z"
           style="fill:#6fdb76;stroke-width:49.6767"
           id="path12526"
           sodipodi:nodetypes="ccssccscscsccccsscccssccscccccscc"
           inkscape:export-filename="./favicon.ico"
           inkscape:export-xdpi="81.783363"
           inkscape:export-ydpi="81.783363" /><rect
           style="opacity:1;fill:#6fdb76;fill-opacity:1;fill-rule:evenodd;stroke:none;stroke-width:2.36975;stroke-linecap:round;stroke-linejoin:round;stroke-opacity:1"
           id="rect14682"
           width="243.67319"
           height="243.67319"
           x="516.19531"
           y="654.69861"
           ry="44.701557"
           rx="0"
           inkscape:export-filename="./favicon.ico"
           inkscape:export-xdpi="7.9045639"
           inkscape:export-ydpi="7.9045639" /><path
           d="m 625.3191,784.27304 c 2.68724,3.26311 5.59843,5.56649 8.73358,6.91015 3.19912,1.34364 6.65418,2.01545 10.36533,2.01545 3.58316,0 6.81427,-0.67181 9.69347,-2.01545 2.8792,-1.34366 5.3104,-3.39111 7.2939,-6.14238 2.0474,-2.75125 3.6151,-6.20632 4.7029,-10.36523 1.0875,-4.22287 1.6314,-9.18154 1.6314,-14.87602 0,-5.75846 -0.4797,-10.62117 -1.4396,-14.58811 -0.8958,-4.03092 -2.2073,-7.29403 -3.9347,-9.78938 -1.7276,-2.49534 -3.8393,-4.31884 -6.3344,-5.47053 -2.4315,-1.1517 -5.2148,-1.72754 -8.34972,-1.72754 -4.92685,0 -9.11769,1.05572 -12.57275,3.16715 -3.45506,2.04745 -6.71808,4.95869 -9.78941,8.73368 z m -1.24752,-59.50412 c 4.03092,-4.54279 8.60543,-8.22182 13.72409,-11.03706 5.11875,-2.81522 11.13321,-4.22285 18.04331,-4.22285 5.3746,0 10.2693,1.1197 14.684,3.35908 4.479,2.2394 8.3179,5.50255 11.5169,9.78941 3.2631,4.22288 5.7586,9.46946 7.4861,15.73976 1.7914,6.20636 2.6871,13.34045 2.6871,21.4023 0,7.35804 -0.9916,14.17223 -2.9751,20.44255 -1.9835,6.27031 -4.8307,11.70885 -8.5418,16.31564 -3.6468,4.60677 -8.0938,8.22179 -13.3403,10.84508 -5.1826,2.55932 -11.005,3.839 -17.4674,3.839 -5.50248,0 -10.20518,-0.83178 -14.10823,-2.49535 -3.90277,-1.72753 -7.38982,-4.0949 -10.46115,-7.10211 l -47.93423,40.30924 h 24.22867 v -130.6211 h 14.49207 c 3.07127,0 5.0867,1.43961 6.04636,4.31884 z"
           style="fill:#242526;fill-opacity:1;stroke-width:49.6767"
           id="path14684"
           sodipodi:nodetypes="ccssccscscsccccsscccssccscccccscc"
           inkscape:export-filename="./favicon.ico"
           inkscape:export-xdpi="81.783363"
           inkscape:export-ydpi="81.783363" /></g><path
         d="m 138.77533,547.30893 c 0.93333,1.13333 1.94445,1.93333 3.03334,2.4 1.11111,0.46667 2.31111,0.7 3.6,0.7 1.24445,0 2.36667,-0.23333 3.36667,-0.7 1,-0.46667 1.84444,-1.17778 2.53333,-2.13334 0.71111,-0.95555 1.25556,-2.15555 1.63334,-3.6 0.37777,-1.46667 0.56666,-3.18889 0.56666,-5.16667 0,-2 -0.16667,-3.68889 -0.5,-5.06667 -0.31111,-1.4 -0.76666,-2.53333 -1.36666,-3.4 -0.6,-0.86667 -1.33333,-1.5 -2.2,-1.9 -0.84445,-0.4 -1.81112,-0.6 -2.90001,-0.6 -1.71111,0 -3.16666,0.36667 -4.36667,1.1 -1.2,0.71111 -2.33333,1.72223 -3.4,3.03334 z M 138.342,526.64225 c 1.4,-1.57778 2.98889,-2.85556 4.76667,-3.83334 1.77778,-0.97777 3.86667,-1.46666 6.26667,-1.46666 1.86667,0 3.56667,0.38889 5.1,1.16666 1.55556,0.77778 2.88889,1.91112 4,3.40001 1.13333,1.46667 2,3.28889 2.6,5.46666 0.62223,2.15556 0.93334,4.63334 0.93334,7.43334 0,2.55556 -0.34445,4.92223 -1.03334,7.10001 -0.68889,2.17777 -1.67777,4.06666 -2.96666,5.66667 -1.26667,1.6 -2.81111,2.85555 -4.63334,3.76666 -1.8,0.88889 -3.82222,1.33334 -6.06667,1.33334 -1.91111,0 -3.54445,-0.28889 -4.9,-0.86667 -1.35556,-0.6 -2.56667,-1.42222 -3.63334,-2.46667 l -16.64832,14.00001 h 8.41499 v -45.36669 h 5.03333 c 1.06667,0 1.76667,0.5 2.1,1.5 z"
         style="fill:#242526;fill-opacity:1"
         id="path388"
         sodipodi:nodetypes="ccssccscscsccccsscccssccscccccscc" /></g></g></svg>
